<svg width="16" height="16" viewBox="0 0 16 16" fill="none" xmlns="http://www.w3.org/2000/svg"><path d="M13.336 4v8h1.333V4h-1.333zm0 8H2.669v1.333h10.667v-1.334zM2.669 12V4H1.336v8h1.333zm0-8h10.667V2.665H2.669v1.333zm11.035 1.07L8.003 7.92l.596 1.193 5.702-2.85-.597-1.193zM8.003 7.92L2.3 5.07l-.597 1.192 5.702 2.851.597-1.192zM2.669 4V2.665c-.736 0-1.333.597-1.333 1.333h1.333zm0 8H1.336c0 .736.597 1.333 1.333 1.333v-1.334zm10.667 0v1.333c.736 0 1.333-.597 1.333-1.334h-1.333zM8.003 7.92l-.597 1.193c.376.188.818.188 1.193 0l-.596-1.192zM14.669 4c0-.737-.597-1.334-1.333-1.334v1.333h1.333z" fill="#fff" fill-opacity="0.8"></path></svg>

